<?xml version="1.0" encoding="UTF-8" standalone="no"?>
<svg
   viewBox="0 0 400 300"
   version="1.1"
   id="svg24"
   sodipodi:docname="separated-magnet-blocks.svg"
   inkscape:version="1.4 (e7c3feb100, 2024-10-09)"
   xmlns:inkscape="http://www.inkscape.org/namespaces/inkscape"
   xmlns:sodipodi="http://sodipodi.sourceforge.net/DTD/sodipodi-0.dtd"
   xmlns="http://www.w3.org/2000/svg"
   xmlns:svg="http://www.w3.org/2000/svg">
  <defs
     id="defs24" />
  <sodipodi:namedview
     id="namedview24"
     pagecolor="#ffffff"
     bordercolor="#000000"
     borderopacity="0.25"
     inkscape:showpageshadow="2"
     inkscape:pageopacity="0.0"
     inkscape:pagecheckerboard="0"
     inkscape:deskcolor="#d1d1d1"
     inkscape:zoom="1.665"
     inkscape:cx="190.39039"
     inkscape:cy="100.3003"
     inkscape:window-width="1536"
     inkscape:window-height="795"
     inkscape:window-x="0"
     inkscape:window-y="0"
     inkscape:window-maximized="1"
     inkscape:current-layer="svg24" />
  <!-- Background -->
  <rect
     width="400"
     height="300"
     fill="none"
     id="rect1" />
  <!-- Red Block -->
  <g
     opacity="0.85"
     id="g6"
     inkscape:label="red"
     inkscape:export-filename="red-block-64.png"
     inkscape:export-xdpi="71.827278"
     inkscape:export-ydpi="71.827278">
    <rect
       x="50"
       y="110"
       width="80"
       height="80"
       rx="5"
       fill="#ff5252"
       stroke="#aa3939"
       stroke-width="2"
       id="rect2" />
    <!-- Rectangular Magnets on edges -->
    <g
       inkscape:groupmode="layer"
       id="g55"
       inkscape:label="magnets"
       inkscape:export-filename="yellow-block.png"
       inkscape:export-xdpi="35.913635"
       inkscape:export-ydpi="35.913635"
       transform="translate(-220.42042,41.441441)">
      <g
         inkscape:groupmode="layer"
         id="g48"
         inkscape:label="left"
         transform="matrix(0.00636851,0.99997972,0.99997972,-0.00636851,117.75237,-201.35396)">
        <rect
           x="280.50916"
           y="148.3387"
           width="20.356421"
           height="4.0734048"
           fill="#e0e0e0"
           stroke="#aaaaaa"
           stroke-width="0.643894"
           id="rect47"
           transform="matrix(0.9999997,7.7273869e-4,-0.00482461,0.99998836,0.21297113,-0.59835778)" />
        <rect
           x="323.10876"
           y="148.30577"
           width="20.356421"
           height="4.0734048"
           fill="#e0e0e0"
           stroke="#aaaaaa"
           stroke-width="0.643894"
           id="rect48"
           transform="matrix(0.9999997,7.7273869e-4,-0.00482461,0.99998836,0.21297113,-0.59835778)" />
      </g>
      <g
         inkscape:groupmode="layer"
         id="g50"
         inkscape:label="right"
         transform="rotate(90.364891,351.09468,148.78602)">
        <rect
           x="280.50916"
           y="148.3387"
           width="20.356421"
           height="4.0734048"
           fill="#e0e0e0"
           stroke="#aaaaaa"
           stroke-width="0.643894"
           id="rect49"
           transform="matrix(0.9999997,7.7273869e-4,-0.00482461,0.99998836,0.21297113,-0.59835778)" />
        <rect
           x="323.10876"
           y="148.30577"
           width="20.356421"
           height="4.0734048"
           fill="#e0e0e0"
           stroke="#aaaaaa"
           stroke-width="0.643894"
           id="rect50"
           transform="matrix(0.9999997,7.7273869e-4,-0.00482461,0.99998836,0.21297113,-0.59835778)" />
      </g>
      <g
         inkscape:groupmode="layer"
         id="g52"
         inkscape:label="top"
         transform="translate(0,-80.600173)">
        <rect
           x="280.50916"
           y="148.3387"
           width="20.356421"
           height="4.0734048"
           fill="#e0e0e0"
           stroke="#aaaaaa"
           stroke-width="0.643894"
           id="rect51"
           transform="matrix(0.9999997,7.7273869e-4,-0.00482461,0.99998836,0.21297113,-0.59835778)" />
        <rect
           x="323.10876"
           y="148.30577"
           width="20.356421"
           height="4.0734048"
           fill="#e0e0e0"
           stroke="#aaaaaa"
           stroke-width="0.643894"
           id="rect52"
           transform="matrix(0.9999997,7.7273869e-4,-0.00482461,0.99998836,0.21297113,-0.59835778)" />
      </g>
      <g
         inkscape:groupmode="layer"
         id="g54"
         inkscape:label="bottom">
        <rect
           x="280.50916"
           y="148.3387"
           width="20.356421"
           height="4.0734048"
           fill="#e0e0e0"
           stroke="#aaaaaa"
           stroke-width="0.643894"
           id="rect53"
           transform="matrix(0.9999997,7.7273869e-4,-0.00482461,0.99998836,0.21297113,-0.59835778)" />
        <rect
           x="323.10876"
           y="148.30577"
           width="20.356421"
           height="4.0734048"
           fill="#e0e0e0"
           stroke="#aaaaaa"
           stroke-width="0.643894"
           id="rect54"
           transform="matrix(0.9999997,7.7273869e-4,-0.00482461,0.99998836,0.21297113,-0.59835778)" />
      </g>
    </g>
    <path
       d="M60 120 L70 115 L120 115 L110 120 Z"
       fill="white"
       opacity="0.3"
       id="path21" />
  </g>
  <!-- Blue Block -->
  <g
     opacity="0.85"
     transform="rotate(0.63212559,161.08614,72.490057)"
     id="g11"
     inkscape:label="blue"
     inkscape:export-filename="blue-block-64.png"
     inkscape:export-xdpi="71.827293"
     inkscape:export-ydpi="71.827293">
    <rect
       x="140"
       y="30"
       width="80"
       height="80"
       rx="5"
       fill="#5280ff"
       stroke="#394faa"
       stroke-width="2"
       id="rect7" />
    <!-- Rectangular Magnets on edges -->
    <path
       d="m 150,40 10,-5 50,20 -10,5 z"
       fill="#ffffff"
       opacity="0.3"
       id="path22" />
    <g
       inkscape:groupmode="layer"
       id="g47"
       inkscape:label="magnets"
       inkscape:export-filename="yellow-block.png"
       inkscape:export-xdpi="35.913635"
       inkscape:export-ydpi="35.913635"
       transform="rotate(-0.63212559,-3312.8032,11870.975)">
      <g
         inkscape:groupmode="layer"
         id="g40"
         inkscape:label="left"
         transform="matrix(0.00636851,0.99997972,0.99997972,-0.00636851,117.75237,-201.35396)">
        <rect
           x="280.50916"
           y="148.3387"
           width="20.356421"
           height="4.0734048"
           fill="#e0e0e0"
           stroke="#aaaaaa"
           stroke-width="0.643894"
           id="rect39"
           transform="matrix(0.9999997,7.7273869e-4,-0.00482461,0.99998836,0.21297113,-0.59835778)" />
        <rect
           x="323.10876"
           y="148.30577"
           width="20.356421"
           height="4.0734048"
           fill="#e0e0e0"
           stroke="#aaaaaa"
           stroke-width="0.643894"
           id="rect40"
           transform="matrix(0.9999997,7.7273869e-4,-0.00482461,0.99998836,0.21297113,-0.59835778)" />
      </g>
      <g
         inkscape:groupmode="layer"
         id="g42"
         inkscape:label="right"
         transform="rotate(90.364891,351.09468,148.78602)">
        <rect
           x="280.50916"
           y="148.3387"
           width="20.356421"
           height="4.0734048"
           fill="#e0e0e0"
           stroke="#aaaaaa"
           stroke-width="0.643894"
           id="rect41"
           transform="matrix(0.9999997,7.7273869e-4,-0.00482461,0.99998836,0.21297113,-0.59835778)" />
        <rect
           x="323.10876"
           y="148.30577"
           width="20.356421"
           height="4.0734048"
           fill="#e0e0e0"
           stroke="#aaaaaa"
           stroke-width="0.643894"
           id="rect42"
           transform="matrix(0.9999997,7.7273869e-4,-0.00482461,0.99998836,0.21297113,-0.59835778)" />
      </g>
      <g
         inkscape:groupmode="layer"
         id="g44"
         inkscape:label="top"
         transform="translate(0,-80.600173)">
        <rect
           x="280.50916"
           y="148.3387"
           width="20.356421"
           height="4.0734048"
           fill="#e0e0e0"
           stroke="#aaaaaa"
           stroke-width="0.643894"
           id="rect43"
           transform="matrix(0.9999997,7.7273869e-4,-0.00482461,0.99998836,0.21297113,-0.59835778)" />
        <rect
           x="323.10876"
           y="148.30577"
           width="20.356421"
           height="4.0734048"
           fill="#e0e0e0"
           stroke="#aaaaaa"
           stroke-width="0.643894"
           id="rect44"
           transform="matrix(0.9999997,7.7273869e-4,-0.00482461,0.99998836,0.21297113,-0.59835778)" />
      </g>
      <g
         inkscape:groupmode="layer"
         id="g46"
         inkscape:label="bottom">
        <rect
           x="280.50916"
           y="148.3387"
           width="20.356421"
           height="4.0734048"
           fill="#e0e0e0"
           stroke="#aaaaaa"
           stroke-width="0.643894"
           id="rect45"
           transform="matrix(0.9999997,7.7273869e-4,-0.00482461,0.99998836,0.21297113,-0.59835778)" />
        <rect
           x="323.10876"
           y="148.30577"
           width="20.356421"
           height="4.0734048"
           fill="#e0e0e0"
           stroke="#aaaaaa"
           stroke-width="0.643894"
           id="rect46"
           transform="matrix(0.9999997,7.7273869e-4,-0.00482461,0.99998836,0.21297113,-0.59835778)" />
      </g>
    </g>
  </g>
  <!-- Green Block -->
  <g
     opacity="0.85"
     transform="rotate(0.33127753,1034.4385,22755.038)"
     id="g16"
     inkscape:label="green"
     inkscape:export-filename="green-block-64.png"
     inkscape:export-xdpi="71.827271"
     inkscape:export-ydpi="71.827271"
     style="display:inline">
    <rect
       x="140"
       y="180"
       width="80"
       height="80"
       rx="5"
       fill="#4caf50"
       stroke="#2e7d32"
       stroke-width="2"
       id="rect12" />
    <!-- Rectangular Magnets on edges -->
    <path
       d="m 150,190 10,-5 50,15 -10,5 z"
       fill="#ffffff"
       opacity="0.3"
       id="path23" />
    <g
       inkscape:groupmode="layer"
       id="g39"
       inkscape:label="magnets-grenn"
       inkscape:export-filename="yellow-block.png"
       inkscape:export-xdpi="35.913635"
       inkscape:export-ydpi="35.913635"
       transform="rotate(-0.33127753,19402.104,22701.938)"
       style="display:inline">
      <g
         inkscape:groupmode="layer"
         id="g32"
         inkscape:label="left"
         transform="matrix(0.00636851,0.99997972,0.99997972,-0.00636851,117.75237,-201.35396)">
        <rect
           x="280.50916"
           y="148.3387"
           width="20.356421"
           height="4.0734048"
           fill="#e0e0e0"
           stroke="#aaaaaa"
           stroke-width="0.643894"
           id="rect31"
           transform="matrix(0.9999997,7.7273869e-4,-0.00482461,0.99998836,0.21297113,-0.59835778)" />
        <rect
           x="323.10876"
           y="148.30577"
           width="20.356421"
           height="4.0734048"
           fill="#e0e0e0"
           stroke="#aaaaaa"
           stroke-width="0.643894"
           id="rect32"
           transform="matrix(0.9999997,7.7273869e-4,-0.00482461,0.99998836,0.21297113,-0.59835778)" />
      </g>
      <g
         inkscape:groupmode="layer"
         id="g34"
         inkscape:label="right"
         transform="rotate(90.364891,351.09468,148.78602)">
        <rect
           x="280.50916"
           y="148.3387"
           width="20.356421"
           height="4.0734048"
           fill="#e0e0e0"
           stroke="#aaaaaa"
           stroke-width="0.643894"
           id="rect33"
           transform="matrix(0.9999997,7.7273869e-4,-0.00482461,0.99998836,0.21297113,-0.59835778)" />
        <rect
           x="323.10876"
           y="148.30577"
           width="20.356421"
           height="4.0734048"
           fill="#e0e0e0"
           stroke="#aaaaaa"
           stroke-width="0.643894"
           id="rect34"
           transform="matrix(0.9999997,7.7273869e-4,-0.00482461,0.99998836,0.21297113,-0.59835778)" />
      </g>
      <g
         inkscape:groupmode="layer"
         id="g36"
         inkscape:label="top"
         transform="translate(0,-80.600173)">
        <rect
           x="280.50916"
           y="148.3387"
           width="20.356421"
           height="4.0734048"
           fill="#e0e0e0"
           stroke="#aaaaaa"
           stroke-width="0.643894"
           id="rect35"
           transform="matrix(0.9999997,7.7273869e-4,-0.00482461,0.99998836,0.21297113,-0.59835778)" />
        <rect
           x="323.10876"
           y="148.30577"
           width="20.356421"
           height="4.0734048"
           fill="#e0e0e0"
           stroke="#aaaaaa"
           stroke-width="0.643894"
           id="rect36"
           transform="matrix(0.9999997,7.7273869e-4,-0.00482461,0.99998836,0.21297113,-0.59835778)" />
      </g>
      <g
         inkscape:groupmode="layer"
         id="g38"
         inkscape:label="bottom">
        <rect
           x="280.50916"
           y="148.3387"
           width="20.356421"
           height="4.0734048"
           fill="#e0e0e0"
           stroke="#aaaaaa"
           stroke-width="0.643894"
           id="rect37"
           transform="matrix(0.9999997,7.7273869e-4,-0.00482461,0.99998836,0.21297113,-0.59835778)" />
        <rect
           x="323.10876"
           y="148.30577"
           width="20.356421"
           height="4.0734048"
           fill="#e0e0e0"
           stroke="#aaaaaa"
           stroke-width="0.643894"
           id="rect38"
           transform="matrix(0.9999997,7.7273869e-4,-0.00482461,0.99998836,0.21297113,-0.59835778)" />
      </g>
    </g>
  </g>
  <!-- Yellow Block -->
  <g
     opacity="0.85"
     transform="rotate(0.1106295,310,110)"
     id="g21"
     inkscape:label="yellow"
     style="display:inline"
     inkscape:export-filename="yellow-block-64.png"
     inkscape:export-xdpi="71.827278"
     inkscape:export-ydpi="71.827278">
    <rect
       x="270"
       y="70"
       width="80"
       height="80"
       rx="5"
       fill="#ffeb3b"
       stroke="#c8b900"
       stroke-width="2"
       id="rect17"
       style="display:inline" />
    <!-- Rectangular Magnets on edges -->
    <path
       d="m 280,80 10,-5 50,30 -10,5 z"
       fill="#ffffff"
       opacity="0.3"
       id="path24" />
    <g
       inkscape:groupmode="layer"
       id="layer8"
       inkscape:label="magnets"
       inkscape:export-filename="yellow-block.png"
       inkscape:export-xdpi="35.913635"
       inkscape:export-ydpi="35.913635"
       transform="rotate(-0.1106295,310,110)">
      <g
         inkscape:groupmode="layer"
         id="layer9"
         inkscape:label="left"
         transform="matrix(0.00636851,0.99997972,0.99997972,-0.00636851,117.75237,-201.35396)">
        <rect
           x="280.50916"
           y="148.3387"
           width="20.356421"
           height="4.0734048"
           fill="#e0e0e0"
           stroke="#aaaaaa"
           stroke-width="0.643894"
           id="rect25"
           transform="matrix(0.9999997,7.7273869e-4,-0.00482461,0.99998836,0.21297113,-0.59835778)" />
        <rect
           x="323.10876"
           y="148.30577"
           width="20.356421"
           height="4.0734048"
           fill="#e0e0e0"
           stroke="#aaaaaa"
           stroke-width="0.643894"
           id="rect26"
           transform="matrix(0.9999997,7.7273869e-4,-0.00482461,0.99998836,0.21297113,-0.59835778)" />
      </g>
      <g
         inkscape:groupmode="layer"
         id="g28"
         inkscape:label="right"
         transform="rotate(90.364891,351.09468,148.78602)">
        <rect
           x="280.50916"
           y="148.3387"
           width="20.356421"
           height="4.0734048"
           fill="#e0e0e0"
           stroke="#aaaaaa"
           stroke-width="0.643894"
           id="rect27"
           transform="matrix(0.9999997,7.7273869e-4,-0.00482461,0.99998836,0.21297113,-0.59835778)" />
        <rect
           x="323.10876"
           y="148.30577"
           width="20.356421"
           height="4.0734048"
           fill="#e0e0e0"
           stroke="#aaaaaa"
           stroke-width="0.643894"
           id="rect28"
           transform="matrix(0.9999997,7.7273869e-4,-0.00482461,0.99998836,0.21297113,-0.59835778)" />
      </g>
      <g
         inkscape:groupmode="layer"
         id="layer10"
         inkscape:label="top"
         transform="translate(0,-80.600173)">
        <rect
           x="280.50916"
           y="148.3387"
           width="20.356421"
           height="4.0734048"
           fill="#e0e0e0"
           stroke="#aaaaaa"
           stroke-width="0.643894"
           id="rect21"
           transform="matrix(0.9999997,7.7273869e-4,-0.00482461,0.99998836,0.21297113,-0.59835778)" />
        <rect
           x="323.10876"
           y="148.30577"
           width="20.356421"
           height="4.0734048"
           fill="#e0e0e0"
           stroke="#aaaaaa"
           stroke-width="0.643894"
           id="rect24"
           transform="matrix(0.9999997,7.7273869e-4,-0.00482461,0.99998836,0.21297113,-0.59835778)" />
      </g>
      <g
         inkscape:groupmode="layer"
         id="g30"
         inkscape:label="bottom">
        <rect
           x="280.50916"
           y="148.3387"
           width="20.356421"
           height="4.0734048"
           fill="#e0e0e0"
           stroke="#aaaaaa"
           stroke-width="0.643894"
           id="rect29"
           transform="matrix(0.9999997,7.7273869e-4,-0.00482461,0.99998836,0.21297113,-0.59835778)" />
        <rect
           x="323.10876"
           y="148.30577"
           width="20.356421"
           height="4.0734048"
           fill="#e0e0e0"
           stroke="#aaaaaa"
           stroke-width="0.643894"
           id="rect30"
           transform="matrix(0.9999997,7.7273869e-4,-0.00482461,0.99998836,0.21297113,-0.59835778)" />
      </g>
    </g>
  </g>
  <!-- Reflection Highlights -->
</svg>
