<?xml version="1.0" encoding="UTF-8" standalone="no"?>
<!-- Created with Inkscape (http://www.inkscape.org/) -->

<svg
   width="71.779732mm"
   height="27.264004mm"
   viewBox="0 0 71.779732 27.264004"
   version="1.1"
   id="svg1"
   xml:space="preserve"
   xmlns:inkscape="http://www.inkscape.org/namespaces/inkscape"
   xmlns:sodipodi="http://sodipodi.sourceforge.net/DTD/sodipodi-0.dtd"
   xmlns:xlink="http://www.w3.org/1999/xlink"
   xmlns="http://www.w3.org/2000/svg"
   xmlns:svg="http://www.w3.org/2000/svg"><sodipodi:namedview
     id="namedview1"
     pagecolor="#ffffff"
     bordercolor="#000000"
     borderopacity="0.25"
     inkscape:showpageshadow="2"
     inkscape:pageopacity="0.0"
     inkscape:pagecheckerboard="0"
     inkscape:deskcolor="#d1d1d1"
     inkscape:document-units="mm"
     inkscape:zoom="2.8970539"
     inkscape:cx="71.106721"
     inkscape:cy="165.1678"
     inkscape:window-width="1920"
     inkscape:window-height="1009"
     inkscape:window-x="1912"
     inkscape:window-y="-8"
     inkscape:window-maximized="1"
     inkscape:current-layer="layer3" /><defs
     id="defs1"><rect
       x="48.324955"
       y="69.035652"
       width="55.918877"
       height="43.147282"
       id="rect3" /><linearGradient
       id="a"
       x1="54.604"
       y1="168.388"
       x2="54.604"
       y2="194.88499"
       gradientTransform="translate(-38.604,-165.636)"
       gradientUnits="userSpaceOnUse"><stop
         offset="0"
         stop-color="#d8d8d8"
         id="stop1" /><stop
         offset="1"
         stop-color="#a3a3a3"
         id="stop2" /></linearGradient><linearGradient
       id="b"
       x1="68.755997"
       y1="209.15199"
       x2="91.638"
       y2="209.15199"
       gradientTransform="matrix(0.832,0,0,0.837,-50.601,-159.449)"
       gradientUnits="userSpaceOnUse"><stop
         offset="0"
         stop-color="#d7d7d7"
         id="stop3" /><stop
         offset="0.5"
         stop-color="#e7e7e7"
         id="stop4" /><stop
         offset="1"
         stop-color="#d7d7d7"
         id="stop5" /></linearGradient><rect
       x="48.324955"
       y="69.035652"
       width="55.918877"
       height="43.147282"
       id="rect23" /><linearGradient
       inkscape:collect="always"
       xlink:href="#a"
       id="linearGradient23"
       gradientUnits="userSpaceOnUse"
       gradientTransform="translate(-38.604,-165.636)"
       x1="54.604"
       y1="168.388"
       x2="54.604"
       y2="194.88499" /><linearGradient
       inkscape:collect="always"
       xlink:href="#b"
       id="linearGradient24"
       gradientUnits="userSpaceOnUse"
       gradientTransform="matrix(0.832,0,0,0.837,-50.601,-159.449)"
       x1="68.755997"
       y1="209.15199"
       x2="91.638"
       y2="209.15199" /><rect
       x="48.324955"
       y="69.035652"
       width="55.918877"
       height="43.147282"
       id="rect31" /><linearGradient
       inkscape:collect="always"
       xlink:href="#a"
       id="linearGradient31"
       gradientUnits="userSpaceOnUse"
       gradientTransform="translate(-38.604,-165.636)"
       x1="54.604"
       y1="168.388"
       x2="54.604"
       y2="194.88499" /><linearGradient
       inkscape:collect="always"
       xlink:href="#b"
       id="linearGradient32"
       gradientUnits="userSpaceOnUse"
       gradientTransform="matrix(0.832,0,0,0.837,-50.601,-159.449)"
       x1="68.755997"
       y1="209.15199"
       x2="91.638"
       y2="209.15199" /><linearGradient
       inkscape:collect="always"
       xlink:href="#a"
       id="linearGradient2"
       gradientUnits="userSpaceOnUse"
       gradientTransform="translate(-38.604,-165.636)"
       x1="54.604"
       y1="168.388"
       x2="54.604"
       y2="194.88499" /><linearGradient
       inkscape:collect="always"
       xlink:href="#b"
       id="linearGradient3"
       gradientUnits="userSpaceOnUse"
       gradientTransform="matrix(0.832,0,0,0.837,-50.601,-159.449)"
       x1="68.755997"
       y1="209.15199"
       x2="91.638"
       y2="209.15199" /></defs><g
     inkscape:label="Layer 1"
     inkscape:groupmode="layer"
     id="layer1"
     transform="translate(-6.2103325,-14.953792)"><rect
       style="fill:#000000;fill-opacity:0.243083;stroke-width:1.0926;stroke-linecap:round;stroke-linejoin:round;stroke-miterlimit:0;paint-order:stroke fill markers"
       id="rect1"
       width="71.779732"
       height="27.264002"
       x="6.2103324"
       y="14.953793"
       ry="1.5295247"
       inkscape:label="panel" /></g><g
     inkscape:groupmode="layer"
     id="g31"
     inkscape:label="delete"
     transform="translate(-6.2103325,-14.953792)"><g
       style="fill:#000000"
       id="g30"
       transform="matrix(0.65691761,0,0,0.65691761,53.683165,17.193684)"
       inkscape:label="key"><g
         id="g29"><defs
           id="defs28" /><title
           id="title28">file_type_autohotkey</title><rect
           x="2"
           y="2.8239999"
           width="28"
           height="26.353001"
           rx="3.0880001"
           ry="3.0880001"
           style="fill:url(#linearGradient31)"
           id="rect28" /><path
           d="M 26.856,29.181 H 5.144 A 3.148,3.148 0 0 1 2,26.037 V 5.963 A 3.148,3.148 0 0 1 5.144,2.819 H 26.856 A 3.148,3.148 0 0 1 30,5.963 v 20.074 a 3.148,3.148 0 0 1 -3.144,3.144 z M 5.144,2.963 a 3,3 0 0 0 -3,3 v 0 20.074 a 3,3 0 0 0 3,3 h 21.712 a 3,3 0 0 0 3,-3 V 5.963 a 3,3 0 0 0 -3,-3 z"
           style="fill:#8d8d8d"
           id="path28" /><rect
           x="4.3130002"
           y="4.6409998"
           width="23.169001"
           height="21.940001"
           rx="2.5710001"
           ry="2.5710001"
           style="fill:url(#linearGradient32)"
           id="rect29" /><path
           d="M 24.911,26.641 H 6.884 A 2.634,2.634 0 0 1 4.253,24.01 V 7.212 A 2.634,2.634 0 0 1 6.884,4.581 h 18.027 a 2.634,2.634 0 0 1 2.631,2.631 v 16.8 a 2.634,2.634 0 0 1 -2.631,2.629 z M 6.884,4.7 A 2.514,2.514 0 0 0 4.373,7.212 v 16.8 a 2.514,2.514 0 0 0 2.511,2.511 h 18.027 a 2.514,2.514 0 0 0 2.511,-2.511 V 7.212 A 2.514,2.514 0 0 0 24.911,4.7 Z"
           style="fill:#f8f8f8"
           id="path29" /></g><text
         xml:space="preserve"
         transform="matrix(0.40276487,0,0,0.40276487,-14.648328,-21.823956)"
         id="text29"
         style="font-size:32px;line-height:1.4;font-family:Consolas;-inkscape-font-specification:Consolas;text-align:center;letter-spacing:1px;white-space:pre;shape-inside:url(#rect31);fill:#ffffff;fill-opacity:0.958498;stroke:#000000;stroke-width:7.55906;stroke-linecap:round;stroke-linejoin:round;stroke-miterlimit:0;stroke-opacity:1;paint-order:stroke fill markers"
         inkscape:label="r"><tspan
           x="67.487305"
           y="99.200781"
           id="tspan1">d</tspan></text></g><text
       xml:space="preserve"
       style="font-size:4.01px;line-height:1.4;font-family:Consolas;-inkscape-font-specification:Consolas;text-align:center;letter-spacing:0.125313px;text-anchor:middle;fill:#000000;fill-opacity:1;stroke:none;stroke-width:0.947244;stroke-linecap:round;stroke-linejoin:round;stroke-miterlimit:0;stroke-opacity:1;paint-order:stroke fill markers"
       x="64.299919"
       y="34.266666"
       id="text30"
       inkscape:label="text10"><tspan
         sodipodi:role="line"
         id="tspan30"
         style="fill:#000000;fill-opacity:1;stroke:none;stroke-width:0.947244"
         x="64.362579"
         y="34.266666">Delete</tspan></text></g><g
     inkscape:groupmode="layer"
     id="layer3"
     inkscape:label="reset"
     style="display:inline"
     transform="translate(-6.2103325,-14.953792)"><g
       style="fill:#000000"
       id="g10"
       transform="matrix(0.65691761,0,0,0.65691761,31.783472,17.193684)"
       inkscape:label="key"><g
         id="SVGRepo_iconCarrier"><defs
           id="defs5" /><title
           id="title5">file_type_autohotkey</title><rect
           x="2"
           y="2.8239999"
           width="28"
           height="26.353001"
           rx="3.0880001"
           ry="3.0880001"
           style="fill:url(#linearGradient23)"
           id="rect5" /><path
           d="M 26.856,29.181 H 5.144 A 3.148,3.148 0 0 1 2,26.037 V 5.963 A 3.148,3.148 0 0 1 5.144,2.819 H 26.856 A 3.148,3.148 0 0 1 30,5.963 v 20.074 a 3.148,3.148 0 0 1 -3.144,3.144 z M 5.144,2.963 a 3,3 0 0 0 -3,3 v 0 20.074 a 3,3 0 0 0 3,3 h 21.712 a 3,3 0 0 0 3,-3 V 5.963 a 3,3 0 0 0 -3,-3 z"
           style="fill:#8d8d8d"
           id="path5" /><rect
           x="4.3130002"
           y="4.6409998"
           width="23.169001"
           height="21.940001"
           rx="2.5710001"
           ry="2.5710001"
           style="fill:url(#linearGradient24)"
           id="rect6" /><path
           d="M 24.911,26.641 H 6.884 A 2.634,2.634 0 0 1 4.253,24.01 V 7.212 A 2.634,2.634 0 0 1 6.884,4.581 h 18.027 a 2.634,2.634 0 0 1 2.631,2.631 v 16.8 a 2.634,2.634 0 0 1 -2.631,2.629 z M 6.884,4.7 A 2.514,2.514 0 0 0 4.373,7.212 v 16.8 a 2.514,2.514 0 0 0 2.511,2.511 h 18.027 a 2.514,2.514 0 0 0 2.511,-2.511 V 7.212 A 2.514,2.514 0 0 0 24.911,4.7 Z"
           style="fill:#f8f8f8"
           id="path6" /></g><text
         xml:space="preserve"
         transform="matrix(0.40276487,0,0,0.40276487,-14.648328,-21.823956)"
         id="text2"
         style="font-size:32px;line-height:1.4;font-family:Consolas;-inkscape-font-specification:Consolas;text-align:center;letter-spacing:1px;white-space:pre;shape-inside:url(#rect3);fill:#ffffff;fill-opacity:0.958498;stroke:#000000;stroke-width:7.55906;stroke-linecap:round;stroke-linejoin:round;stroke-miterlimit:0;stroke-opacity:1;paint-order:stroke fill markers"
         inkscape:label="r"><tspan
           x="67.487305"
           y="99.200781"
           id="tspan2">e</tspan></text></g><text
       xml:space="preserve"
       style="font-size:4.01px;line-height:1.4;font-family:Consolas;-inkscape-font-specification:Consolas;text-align:center;letter-spacing:0.125313px;text-anchor:middle;fill:#000000;fill-opacity:1;stroke:none;stroke-width:0.947244;stroke-linecap:round;stroke-linejoin:round;stroke-miterlimit:0;stroke-opacity:1;paint-order:stroke fill markers"
       x="42.40023"
       y="34.09436"
       id="text10"
       inkscape:label="text10"><tspan
         sodipodi:role="line"
         id="tspan10"
         style="fill:#000000;fill-opacity:1;stroke:none;stroke-width:0.947244"
         x="42.462887"
         y="34.09436">Reset</tspan></text></g><g
     inkscape:groupmode="layer"
     id="g23"
     inkscape:label="rotate"
     style="display:inline"
     transform="translate(-6.2103325,-14.953792)"><g
       style="fill:#000000"
       id="g22"
       transform="matrix(0.65691761,0,0,0.65691761,10.18325,17.193684)"
       inkscape:label="key"><g
         id="g21"><defs
           id="defs20" /><title
           id="title20">file_type_autohotkey</title><rect
           x="2"
           y="2.8239999"
           width="28"
           height="26.353001"
           rx="3.0880001"
           ry="3.0880001"
           style="fill:url(#linearGradient2)"
           id="rect20" /><path
           d="M 26.856,29.181 H 5.144 A 3.148,3.148 0 0 1 2,26.037 V 5.963 A 3.148,3.148 0 0 1 5.144,2.819 H 26.856 A 3.148,3.148 0 0 1 30,5.963 v 20.074 a 3.148,3.148 0 0 1 -3.144,3.144 z M 5.144,2.963 a 3,3 0 0 0 -3,3 v 0 20.074 a 3,3 0 0 0 3,3 h 21.712 a 3,3 0 0 0 3,-3 V 5.963 a 3,3 0 0 0 -3,-3 z"
           style="fill:#8d8d8d"
           id="path20" /><rect
           x="4.3130002"
           y="4.6409998"
           width="23.169001"
           height="21.940001"
           rx="2.5710001"
           ry="2.5710001"
           style="fill:url(#linearGradient3)"
           id="rect21" /><path
           d="M 24.911,26.641 H 6.884 A 2.634,2.634 0 0 1 4.253,24.01 V 7.212 A 2.634,2.634 0 0 1 6.884,4.581 h 18.027 a 2.634,2.634 0 0 1 2.631,2.631 v 16.8 a 2.634,2.634 0 0 1 -2.631,2.629 z M 6.884,4.7 A 2.514,2.514 0 0 0 4.373,7.212 v 16.8 a 2.514,2.514 0 0 0 2.511,2.511 h 18.027 a 2.514,2.514 0 0 0 2.511,-2.511 V 7.212 A 2.514,2.514 0 0 0 24.911,4.7 Z"
           style="fill:#f8f8f8"
           id="path21" /></g><text
         xml:space="preserve"
         transform="matrix(0.40276487,0,0,0.40276487,-14.648328,-21.823956)"
         id="text21"
         style="font-size:32px;line-height:1.4;font-family:Consolas;-inkscape-font-specification:Consolas;text-align:center;letter-spacing:1px;white-space:pre;shape-inside:url(#rect23);fill:#ffffff;fill-opacity:0.958498;stroke:#000000;stroke-width:7.55906;stroke-linecap:round;stroke-linejoin:round;stroke-miterlimit:0;stroke-opacity:1;paint-order:stroke fill markers"
         inkscape:label="r"><tspan
           x="67.487305"
           y="99.200781"
           id="tspan3">r</tspan></text></g><text
       xml:space="preserve"
       style="font-size:4.01px;line-height:1.4;font-family:Consolas;-inkscape-font-specification:Consolas;text-align:center;letter-spacing:0.125313px;text-anchor:middle;fill:#000000;fill-opacity:1;stroke:none;stroke-width:0.947244;stroke-linecap:round;stroke-linejoin:round;stroke-miterlimit:0;stroke-opacity:1;paint-order:stroke fill markers"
       x="20.80003"
       y="34.09436"
       id="text22"><tspan
         sodipodi:role="line"
         id="tspan22"
         style="fill:#000000;fill-opacity:1;stroke:none;stroke-width:0.947244"
         x="20.862686"
         y="34.09436">Rotate</tspan></text></g></svg>
